<mxfile host="65bd71144e">
    <diagram id="zfsoFLIaf9pteM-im_Dt" name="Page-1">
        <mxGraphModel dx="775" dy="2412" grid="1" gridSize="10" guides="1" tooltips="1" connect="1" arrows="1" fold="1" page="1" pageScale="1" pageWidth="850" pageHeight="1100" math="0" shadow="0">
            <root>
                <mxCell id="0"/>
                <mxCell id="1" parent="0"/>
                <mxCell id="H-HpMa1tES0XYP5US8zA-77" value="" style="rounded=1;whiteSpace=wrap;html=1;shadow=0;glass=0;sketch=0;fontSize=26;align=left;fillColor=#E5F7BC;strokeColor=#36393d;arcSize=3;" parent="1" vertex="1">
                    <mxGeometry x="1200" y="320" width="520" height="600" as="geometry"/>
                </mxCell>
                <mxCell id="H-HpMa1tES0XYP5US8zA-1" value="" style="endArrow=none;html=1;" parent="1" edge="1">
                    <mxGeometry width="50" height="50" relative="1" as="geometry">
                        <mxPoint x="320" y="1000" as="sourcePoint"/>
                        <mxPoint x="320" y="40" as="targetPoint"/>
                    </mxGeometry>
                </mxCell>
                <mxCell id="H-HpMa1tES0XYP5US8zA-2" value="" style="endArrow=none;html=1;" parent="1" edge="1">
                    <mxGeometry width="50" height="50" relative="1" as="geometry">
                        <mxPoint x="320" y="320" as="sourcePoint"/>
                        <mxPoint x="10" y="320" as="targetPoint"/>
                    </mxGeometry>
                </mxCell>
                <mxCell id="H-HpMa1tES0XYP5US8zA-3" value="" style="rounded=1;whiteSpace=wrap;html=1;" parent="1" vertex="1">
                    <mxGeometry x="30" y="270" width="270" height="30" as="geometry"/>
                </mxCell>
                <mxCell id="H-HpMa1tES0XYP5US8zA-5" value="Weather Search" style="text;html=1;strokeColor=none;fillColor=none;align=left;verticalAlign=middle;whiteSpace=wrap;rounded=0;fontSize=50;fontStyle=1" parent="1" vertex="1">
                    <mxGeometry x="30" y="40" width="240" height="120" as="geometry"/>
                </mxCell>
                <mxCell id="H-HpMa1tES0XYP5US8zA-8" value="&lt;h1 style=&quot;font-size: 20px;&quot;&gt;&lt;span style=&quot;font-weight: normal; font-size: 20px;&quot;&gt;Enter a city and pull up a 5-day weather forecast for that area.&lt;/span&gt;&lt;/h1&gt;" style="text;html=1;strokeColor=none;fillColor=none;spacing=5;spacingTop=-20;whiteSpace=wrap;overflow=hidden;rounded=0;fontSize=20;align=left;" parent="1" vertex="1">
                    <mxGeometry x="30" y="180" width="240" height="70" as="geometry"/>
                </mxCell>
                <mxCell id="H-HpMa1tES0XYP5US8zA-9" value="" style="endArrow=none;dashed=1;html=1;dashPattern=1 3;strokeWidth=2;fontSize=18;" parent="1" edge="1">
                    <mxGeometry width="50" height="50" relative="1" as="geometry">
                        <mxPoint x="40" y="170" as="sourcePoint"/>
                        <mxPoint x="280" y="170" as="targetPoint"/>
                    </mxGeometry>
                </mxCell>
                <mxCell id="H-HpMa1tES0XYP5US8zA-10" value="Denver" style="rounded=1;whiteSpace=wrap;html=1;fontSize=18;align=center;fillColor=#dae8fc;strokeColor=#6c8ebf;fontColor=#000000;" parent="1" vertex="1">
                    <mxGeometry x="35" y="460" width="240" height="40" as="geometry"/>
                </mxCell>
                <mxCell id="H-HpMa1tES0XYP5US8zA-11" value="Search history" style="text;html=1;strokeColor=none;fillColor=none;align=left;verticalAlign=middle;whiteSpace=wrap;rounded=0;fontSize=30;" parent="1" vertex="1">
                    <mxGeometry x="30" y="340" width="250" height="40" as="geometry"/>
                </mxCell>
                <mxCell id="H-HpMa1tES0XYP5US8zA-12" value="&lt;h1 style=&quot;font-size: 16px&quot;&gt;&lt;span style=&quot;font-weight: 400&quot;&gt;Select a city to view its weather forecast again.&lt;/span&gt;&lt;/h1&gt;" style="text;html=1;strokeColor=none;fillColor=none;spacing=5;spacingTop=-20;whiteSpace=wrap;overflow=hidden;rounded=0;fontSize=16;align=left;" parent="1" vertex="1">
                    <mxGeometry x="30" y="390" width="240" height="50" as="geometry"/>
                </mxCell>
                <mxCell id="H-HpMa1tES0XYP5US8zA-13" value="Idaho Falls" style="rounded=1;whiteSpace=wrap;html=1;fontSize=18;align=center;fillColor=#dae8fc;strokeColor=#6c8ebf;fontColor=#000000;" parent="1" vertex="1">
                    <mxGeometry x="35" y="520" width="240" height="40" as="geometry"/>
                </mxCell>
                <mxCell id="H-HpMa1tES0XYP5US8zA-14" value="Oklahoma City" style="rounded=1;whiteSpace=wrap;html=1;fontSize=18;align=center;fillColor=#dae8fc;strokeColor=#6c8ebf;fontColor=#000000;" parent="1" vertex="1">
                    <mxGeometry x="35" y="580" width="240" height="40" as="geometry"/>
                </mxCell>
                <mxCell id="H-HpMa1tES0XYP5US8zA-15" value="Las Vegas" style="rounded=1;whiteSpace=wrap;html=1;fontSize=18;align=center;fillColor=#dae8fc;strokeColor=#6c8ebf;fontColor=#000000;" parent="1" vertex="1">
                    <mxGeometry x="35" y="640" width="240" height="40" as="geometry"/>
                </mxCell>
                <mxCell id="H-HpMa1tES0XYP5US8zA-16" value="Sacramento" style="rounded=1;whiteSpace=wrap;html=1;fontSize=18;align=center;fillColor=#dae8fc;strokeColor=#6c8ebf;fontColor=#000000;" parent="1" vertex="1">
                    <mxGeometry x="35" y="700" width="240" height="40" as="geometry"/>
                </mxCell>
                <mxCell id="H-HpMa1tES0XYP5US8zA-18" value="Salt Lake City, US" style="text;html=1;strokeColor=none;fillColor=none;align=center;verticalAlign=middle;whiteSpace=wrap;rounded=0;fontSize=30;fontStyle=1" parent="1" vertex="1">
                    <mxGeometry x="360" y="40" width="690" height="60" as="geometry"/>
                </mxCell>
                <mxCell id="H-HpMa1tES0XYP5US8zA-25" value="Sunday, June 3, 2023 â€” Thu, June 7, 2023" style="text;html=1;strokeColor=none;fillColor=none;align=center;verticalAlign=middle;whiteSpace=wrap;rounded=0;fontSize=24;" parent="1" vertex="1">
                    <mxGeometry x="340" y="380" width="720" height="20" as="geometry"/>
                </mxCell>
                <mxCell id="H-HpMa1tES0XYP5US8zA-36" value="" style="group" parent="1" vertex="1" connectable="0">
                    <mxGeometry x="340" y="440" width="720" height="180" as="geometry"/>
                </mxCell>
                <mxCell id="H-HpMa1tES0XYP5US8zA-20" value="Thu&lt;br&gt;6/22&lt;br&gt;&lt;br&gt;&lt;br&gt;&lt;br&gt;" style="rounded=0;whiteSpace=wrap;html=1;fontSize=24;align=center;strokeColor=#36393d;fillColor=#00006b;fontColor=#FFFFFF;" parent="H-HpMa1tES0XYP5US8zA-36" vertex="1">
                    <mxGeometry width="120" height="180" as="geometry"/>
                </mxCell>
                <mxCell id="H-HpMa1tES0XYP5US8zA-21" value="Fri&lt;br&gt;6/23&lt;br&gt;&lt;br&gt;&lt;br&gt;&lt;br&gt;" style="rounded=0;whiteSpace=wrap;html=1;fontSize=24;align=center;fillColor=#1ba1e2;strokeColor=#006EAF;fontColor=#ffffff;" parent="H-HpMa1tES0XYP5US8zA-36" vertex="1">
                    <mxGeometry x="150" width="120" height="180" as="geometry"/>
                </mxCell>
                <mxCell id="H-HpMa1tES0XYP5US8zA-22" value="Sat&lt;br&gt;6/24&lt;br&gt;&lt;font style=&quot;font-size: 18px&quot;&gt;&lt;font color=&quot;#0000db&quot;&gt;11&lt;/font&gt;&amp;nbsp; &amp;nbsp;&lt;font color=&quot;#ff0000&quot;&gt;53&lt;/font&gt;&lt;/font&gt;&lt;br&gt;&lt;br&gt;&lt;br&gt;" style="rounded=0;whiteSpace=wrap;html=1;fontSize=24;align=center;strokeColor=#36393d;shadow=1;fillColor=#E5F7BC;" parent="H-HpMa1tES0XYP5US8zA-36" vertex="1">
                    <mxGeometry x="300" width="120" height="180" as="geometry"/>
                </mxCell>
                <mxCell id="H-HpMa1tES0XYP5US8zA-23" value="Sun&lt;br&gt;6/25&lt;br&gt;&lt;br&gt;&lt;br&gt;&lt;br&gt;" style="rounded=0;whiteSpace=wrap;html=1;fontSize=24;align=center;strokeColor=#C73500;fillColor=#fa6800;fontColor=#ffffff;" parent="H-HpMa1tES0XYP5US8zA-36" vertex="1">
                    <mxGeometry x="450.00000000000006" width="120" height="180" as="geometry"/>
                </mxCell>
                <mxCell id="H-HpMa1tES0XYP5US8zA-24" value="Mon&lt;br&gt;6/26&lt;br&gt;&lt;br&gt;&lt;br&gt;&lt;br&gt;" style="rounded=0;whiteSpace=wrap;html=1;fontSize=24;align=center;fillColor=#e51400;strokeColor=#B20000;fontColor=#ffffff;" parent="H-HpMa1tES0XYP5US8zA-36" vertex="1">
                    <mxGeometry x="600" width="120" height="180" as="geometry"/>
                </mxCell>
                <mxCell id="H-HpMa1tES0XYP5US8zA-31" value="" style="shape=image;verticalLabelPosition=bottom;labelBackgroundColor=#ffffff;verticalAlign=top;aspect=fixed;imageAspect=0;image=data:image/png,iVBORw0KGgoAAAANSUhEUgAAAFIAAABSCAYAAADHLIObAAADBElEQVR4Ae3da07DMBAE4Ny8l+r9QC61CGkc72t2p9SRUJrEXu98GPhRBNu2bV/rw22wteMBeb/fv9YhF2he3e6h2C76zYUpg9x7PTF/dmSbvn8oK/eZo45OL5ALc74xjohtxinkwhxjniFeQi7MV8wR4hRyYf5iXiGKIBem7Afw8Hvk7+fi59XsM3Ic/1+upbnFkA1GWvTTEFteFeQnYWo3jRryEzC1iKYd2Sa1w7LYcyr1yZrLtCO7hHXRPp/t7MnjgmwQnsWZIL053JD/AdOL2AxCIN8ZMwIxFPIdMaMQwyHfCTMSEQL5DpjRiDBIZkwEIhSSEROFCIdkwkQipkAyYKIR0yArMTMQUyErMLMQ0yEzMTMRSyAzMLMRyyCRmBWIpZAIzCrEcshIzEpECsgIzGpEGkgPJgMiFaQFkwWRDlKDyYRICSnBZEOkhbzCZESkhjzDZEWkh9xj3m63x1ueDZPxCHs7FhmuI7Yz60EP2b+cO+bakYat1BE73vHaUBI2hXZHjtBG92FCwsKUkDOs2XNh9tBhdJBSJOm4UK2LYlSQWhzt+AsH9yMaSCuKdZ5b7lCAAtKL4Z1/MDFdlkNGIUTVMSlG/qKppYHo8NH1NJnKdiQqNKruDLUEEh0WXf8MNR0yK2TWOh01FTI7XOZ6aZCZofouaeesdVMgs8LsAfevM9aHQ2aE2KONXqP7gEKimx+hje4j+4FBIpseQUnuo/qCQKKalUBJxiD6C4dENCnB0Y6J7jMUMro5LY52fGS/YZCRTWlBPOOj+g6BjGrGA+KZG9G/GzKiCQ9C1FxvDhekd/EohKg6njxmSM+iUcERday5TJDWxRDBETUt+dSQlkUQYdE1tTlVkNri6LDo+pq8YkhNUXTAzPrS3CJIabHMgJlrSfJPISVFMkNVrTVzuIScTa4KVbXulccQ8mpSVRCGdUcup5CjwQxBGHo483mBPBvE0DxbD0enP5DHh2zNs/Wz9/oD2S7aw3XIBTrmC+TzRv97iOus+z8//T+xrLNX4BsVIYB1+S7+PQAAAABJRU5ErkJggg==;" parent="H-HpMa1tES0XYP5US8zA-36" vertex="1">
                    <mxGeometry x="34" y="109.99666666666667" width="52" height="52" as="geometry"/>
                </mxCell>
                <mxCell id="H-HpMa1tES0XYP5US8zA-32" value="" style="shape=image;verticalLabelPosition=bottom;labelBackgroundColor=#ffffff;verticalAlign=top;aspect=fixed;imageAspect=0;image=data:image/png,iVBORw0KGgoAAAANSUhEUgAAAFIAAABSCAYAAADHLIObAAADBElEQVR4Ae3da07DMBAE4Ny8l+r9QC61CGkc72t2p9SRUJrEXu98GPhRBNu2bV/rw22wteMBeb/fv9YhF2he3e6h2C76zYUpg9x7PTF/dmSbvn8oK/eZo45OL5ALc74xjohtxinkwhxjniFeQi7MV8wR4hRyYf5iXiGKIBem7Afw8Hvk7+fi59XsM3Ic/1+upbnFkA1GWvTTEFteFeQnYWo3jRryEzC1iKYd2Sa1w7LYcyr1yZrLtCO7hHXRPp/t7MnjgmwQnsWZIL053JD/AdOL2AxCIN8ZMwIxFPIdMaMQwyHfCTMSEQL5DpjRiDBIZkwEIhSSEROFCIdkwkQipkAyYKIR0yArMTMQUyErMLMQ0yEzMTMRSyAzMLMRyyCRmBWIpZAIzCrEcshIzEpECsgIzGpEGkgPJgMiFaQFkwWRDlKDyYRICSnBZEOkhbzCZESkhjzDZEWkh9xj3m63x1ueDZPxCHs7FhmuI7Yz60EP2b+cO+bakYat1BE73vHaUBI2hXZHjtBG92FCwsKUkDOs2XNh9tBhdJBSJOm4UK2LYlSQWhzt+AsH9yMaSCuKdZ5b7lCAAtKL4Z1/MDFdlkNGIUTVMSlG/qKppYHo8NH1NJnKdiQqNKruDLUEEh0WXf8MNR0yK2TWOh01FTI7XOZ6aZCZofouaeesdVMgs8LsAfevM9aHQ2aE2KONXqP7gEKimx+hje4j+4FBIpseQUnuo/qCQKKalUBJxiD6C4dENCnB0Y6J7jMUMro5LY52fGS/YZCRTWlBPOOj+g6BjGrGA+KZG9G/GzKiCQ9C1FxvDhekd/EohKg6njxmSM+iUcERday5TJDWxRDBETUt+dSQlkUQYdE1tTlVkNri6LDo+pq8YkhNUXTAzPrS3CJIabHMgJlrSfJPISVFMkNVrTVzuIScTa4KVbXulccQ8mpSVRCGdUcup5CjwQxBGHo483mBPBvE0DxbD0enP5DHh2zNs/Wz9/oD2S7aw3XIBTrmC+TzRv97iOus+z8//T+xrLNX4BsVIYB1+S7+PQAAAABJRU5ErkJggg==;" parent="H-HpMa1tES0XYP5US8zA-36" vertex="1">
                    <mxGeometry x="183.99999999999997" y="109.99666666666667" width="52" height="52" as="geometry"/>
                </mxCell>
                <mxCell id="H-HpMa1tES0XYP5US8zA-33" value="" style="shape=image;verticalLabelPosition=bottom;labelBackgroundColor=#ffffff;verticalAlign=top;aspect=fixed;imageAspect=0;image=data:image/png,iVBORw0KGgoAAAANSUhEUgAAAFIAAABSCAYAAADHLIObAAADBElEQVR4Ae3da07DMBAE4Ny8l+r9QC61CGkc72t2p9SRUJrEXu98GPhRBNu2bV/rw22wteMBeb/fv9YhF2he3e6h2C76zYUpg9x7PTF/dmSbvn8oK/eZo45OL5ALc74xjohtxinkwhxjniFeQi7MV8wR4hRyYf5iXiGKIBem7Afw8Hvk7+fi59XsM3Ic/1+upbnFkA1GWvTTEFteFeQnYWo3jRryEzC1iKYd2Sa1w7LYcyr1yZrLtCO7hHXRPp/t7MnjgmwQnsWZIL053JD/AdOL2AxCIN8ZMwIxFPIdMaMQwyHfCTMSEQL5DpjRiDBIZkwEIhSSEROFCIdkwkQipkAyYKIR0yArMTMQUyErMLMQ0yEzMTMRSyAzMLMRyyCRmBWIpZAIzCrEcshIzEpECsgIzGpEGkgPJgMiFaQFkwWRDlKDyYRICSnBZEOkhbzCZESkhjzDZEWkh9xj3m63x1ueDZPxCHs7FhmuI7Yz60EP2b+cO+bakYat1BE73vHaUBI2hXZHjtBG92FCwsKUkDOs2XNh9tBhdJBSJOm4UK2LYlSQWhzt+AsH9yMaSCuKdZ5b7lCAAtKL4Z1/MDFdlkNGIUTVMSlG/qKppYHo8NH1NJnKdiQqNKruDLUEEh0WXf8MNR0yK2TWOh01FTI7XOZ6aZCZofouaeesdVMgs8LsAfevM9aHQ2aE2KONXqP7gEKimx+hje4j+4FBIpseQUnuo/qCQKKalUBJxiD6C4dENCnB0Y6J7jMUMro5LY52fGS/YZCRTWlBPOOj+g6BjGrGA+KZG9G/GzKiCQ9C1FxvDhekd/EohKg6njxmSM+iUcERday5TJDWxRDBETUt+dSQlkUQYdE1tTlVkNri6LDo+pq8YkhNUXTAzPrS3CJIabHMgJlrSfJPISVFMkNVrTVzuIScTa4KVbXulccQ8mpSVRCGdUcup5CjwQxBGHo483mBPBvE0DxbD0enP5DHh2zNs/Wz9/oD2S7aw3XIBTrmC+TzRv97iOus+z8//T+xrLNX4BsVIYB1+S7+PQAAAABJRU5ErkJggg==;" parent="H-HpMa1tES0XYP5US8zA-36" vertex="1">
                    <mxGeometry x="333.99999999999994" y="109.99666666666667" width="52" height="52" as="geometry"/>
                </mxCell>
                <mxCell id="H-HpMa1tES0XYP5US8zA-34" value="" style="shape=image;verticalLabelPosition=bottom;labelBackgroundColor=#ffffff;verticalAlign=top;aspect=fixed;imageAspect=0;image=data:image/png,iVBORw0KGgoAAAANSUhEUgAAAFIAAABSCAYAAADHLIObAAADBElEQVR4Ae3da07DMBAE4Ny8l+r9QC61CGkc72t2p9SRUJrEXu98GPhRBNu2bV/rw22wteMBeb/fv9YhF2he3e6h2C76zYUpg9x7PTF/dmSbvn8oK/eZo45OL5ALc74xjohtxinkwhxjniFeQi7MV8wR4hRyYf5iXiGKIBem7Afw8Hvk7+fi59XsM3Ic/1+upbnFkA1GWvTTEFteFeQnYWo3jRryEzC1iKYd2Sa1w7LYcyr1yZrLtCO7hHXRPp/t7MnjgmwQnsWZIL053JD/AdOL2AxCIN8ZMwIxFPIdMaMQwyHfCTMSEQL5DpjRiDBIZkwEIhSSEROFCIdkwkQipkAyYKIR0yArMTMQUyErMLMQ0yEzMTMRSyAzMLMRyyCRmBWIpZAIzCrEcshIzEpECsgIzGpEGkgPJgMiFaQFkwWRDlKDyYRICSnBZEOkhbzCZESkhjzDZEWkh9xj3m63x1ueDZPxCHs7FhmuI7Yz60EP2b+cO+bakYat1BE73vHaUBI2hXZHjtBG92FCwsKUkDOs2XNh9tBhdJBSJOm4UK2LYlSQWhzt+AsH9yMaSCuKdZ5b7lCAAtKL4Z1/MDFdlkNGIUTVMSlG/qKppYHo8NH1NJnKdiQqNKruDLUEEh0WXf8MNR0yK2TWOh01FTI7XOZ6aZCZofouaeesdVMgs8LsAfevM9aHQ2aE2KONXqP7gEKimx+hje4j+4FBIpseQUnuo/qCQKKalUBJxiD6C4dENCnB0Y6J7jMUMro5LY52fGS/YZCRTWlBPOOj+g6BjGrGA+KZG9G/GzKiCQ9C1FxvDhekd/EohKg6njxmSM+iUcERday5TJDWxRDBETUt+dSQlkUQYdE1tTlVkNri6LDo+pq8YkhNUXTAzPrS3CJIabHMgJlrSfJPISVFMkNVrTVzuIScTa4KVbXulccQ8mpSVRCGdUcup5CjwQxBGHo483mBPBvE0DxbD0enP5DHh2zNs/Wz9/oD2S7aw3XIBTrmC+TzRv97iOus+z8//T+xrLNX4BsVIYB1+S7+PQAAAABJRU5ErkJggg==;" parent="H-HpMa1tES0XYP5US8zA-36" vertex="1">
                    <mxGeometry x="483.9999999999999" y="109.99666666666667" width="52" height="52" as="geometry"/>
                </mxCell>
                <mxCell id="H-HpMa1tES0XYP5US8zA-35" value="" style="shape=image;verticalLabelPosition=bottom;labelBackgroundColor=#ffffff;verticalAlign=top;aspect=fixed;imageAspect=0;image=data:image/png,iVBORw0KGgoAAAANSUhEUgAAAFIAAABSCAYAAADHLIObAAADBElEQVR4Ae3da07DMBAE4Ny8l+r9QC61CGkc72t2p9SRUJrEXu98GPhRBNu2bV/rw22wteMBeb/fv9YhF2he3e6h2C76zYUpg9x7PTF/dmSbvn8oK/eZo45OL5ALc74xjohtxinkwhxjniFeQi7MV8wR4hRyYf5iXiGKIBem7Afw8Hvk7+fi59XsM3Ic/1+upbnFkA1GWvTTEFteFeQnYWo3jRryEzC1iKYd2Sa1w7LYcyr1yZrLtCO7hHXRPp/t7MnjgmwQnsWZIL053JD/AdOL2AxCIN8ZMwIxFPIdMaMQwyHfCTMSEQL5DpjRiDBIZkwEIhSSEROFCIdkwkQipkAyYKIR0yArMTMQUyErMLMQ0yEzMTMRSyAzMLMRyyCRmBWIpZAIzCrEcshIzEpECsgIzGpEGkgPJgMiFaQFkwWRDlKDyYRICSnBZEOkhbzCZESkhjzDZEWkh9xj3m63x1ueDZPxCHs7FhmuI7Yz60EP2b+cO+bakYat1BE73vHaUBI2hXZHjtBG92FCwsKUkDOs2XNh9tBhdJBSJOm4UK2LYlSQWhzt+AsH9yMaSCuKdZ5b7lCAAtKL4Z1/MDFdlkNGIUTVMSlG/qKppYHo8NH1NJnKdiQqNKruDLUEEh0WXf8MNR0yK2TWOh01FTI7XOZ6aZCZofouaeesdVMgs8LsAfevM9aHQ2aE2KONXqP7gEKimx+hje4j+4FBIpseQUnuo/qCQKKalUBJxiD6C4dENCnB0Y6J7jMUMro5LY52fGS/YZCRTWlBPOOj+g6BjGrGA+KZG9G/GzKiCQ9C1FxvDhekd/EohKg6njxmSM+iUcERday5TJDWxRDBETUt+dSQlkUQYdE1tTlVkNri6LDo+pq8YkhNUXTAzPrS3CJIabHMgJlrSfJPISVFMkNVrTVzuIScTa4KVbXulccQ8mpSVRCGdUcup5CjwQxBGHo483mBPBvE0DxbD0enP5DHh2zNs/Wz9/oD2S7aw3XIBTrmC+TzRv97iOus+z8//T+xrLNX4BsVIYB1+S7+PQAAAABJRU5ErkJggg==;" parent="H-HpMa1tES0XYP5US8zA-36" vertex="1">
                    <mxGeometry x="633.9999999999998" y="109.99666666666667" width="52" height="52" as="geometry"/>
                </mxCell>
                <mxCell id="H-HpMa1tES0XYP5US8zA-50" value="" style="shape=image;verticalLabelPosition=bottom;labelBackgroundColor=#ffffff;verticalAlign=top;aspect=fixed;imageAspect=0;image=data:image/png,iVBORw0KGgoAAAANSUhEUgAAACgAAAApCAYAAABHomvIAAACq0lEQVRYCe2Yv6vaUBTHzyAqiCAayJDZWRH/AMHdTdDtPZwd3Hyb+A90EfwjCvoPCA6dhIJLoRSHbh2KVGjRvteht3xCAiYvMYmJzww9y+XenB/fnHt+JSLJUV1EnjRN+1AsFr9nMpk/IqJY2XPOcxGB702pX6lUPum6/ms4HD4vFgu12+3U6XRSECt7znkOH/wi0r81yrqmaR9rtdoB41EIfuSQv5VHH7m+2WwWBdcrXuTRIyLoS4xGuq7/3Gw2rwxec4Ae9InIKAmEjygjppIk9FkgY3mS7FNBnlutVmo8HqtOp6NarZa5suf8EqHXuu7rspyAvhRzBH6j0VDNZlNNJhO1XC7Ver02V/ac8/xSQqHfSpzIt90n6/w8gIeq1aoJxo+Hc0DDB78fYSdyCaJu+b05xtrttjocfPE7sMAHvx9I7Fh1MrQX6xRXhxVrgzI8EhacrQN+5PxeGntR6uMTHcBWfr4SU1zbNYQc8l6EPastBnuRHur1pmQlgR+HkPfKbuxZvTsYII3eq+4RQ2RnHELeKxaxh91gdCLCNGI3/nMw1Llrr9fWgzx63IQ9axoKhdEtb+4pwtS5OIQ8erzIKtrBAFPvwdTHYOqzmHqU6jpIRU97J5G092JSPd3TDAjL5fLXNM+DD9ls9mU+n3vVVMfZPSbqh3w+/7zf7x1AktzE+Sa5Obg4X3UmuO12m6SzHLrifBeHAnc8HtVgMPjrNS86kLg28Mf5sxAKHDan0+nvXC73rVKpfKaY03EwTkzZI1rS/2YigSsUCl9EpGTNRDf/uxUa3Gg0OrnABc9tMTlCg+v1esf/4FzeVmFKyT08Z+IslUrvu93uD1clcGzvBs725CWQdwd3CWRqwHmBTB24c5CGYby8dSmx7YdaDcN4d9YhQsnciukfsa22CojiSncAAAAASUVORK5CYII=;" parent="1" vertex="1">
                    <mxGeometry x="275" y="273.63" width="22.2" height="22.75" as="geometry"/>
                </mxCell>
                <mxCell id="H-HpMa1tES0XYP5US8zA-52" value="Salt Lake City, UT" style="text;html=1;strokeColor=none;fillColor=none;align=center;verticalAlign=middle;whiteSpace=wrap;rounded=0;fontSize=30;fontStyle=1" parent="1" vertex="1">
                    <mxGeometry x="1240" y="40" width="440" height="60" as="geometry"/>
                </mxCell>
                <mxCell id="H-HpMa1tES0XYP5US8zA-53" value="Sunday, June 3, 2023 â€” Thu, June 7, 2023" style="text;html=1;strokeColor=none;fillColor=none;align=center;verticalAlign=middle;whiteSpace=wrap;rounded=0;fontSize=24;" parent="1" vertex="1">
                    <mxGeometry x="1220" y="110" width="480" height="20" as="geometry"/>
                </mxCell>
                <mxCell id="H-HpMa1tES0XYP5US8zA-65" value="&lt;b&gt;High:&lt;br&gt;Low:&lt;br&gt;Wind:&lt;br&gt;Precipit.:&lt;br&gt;Humidity:&lt;br&gt;UV Index:&lt;br&gt;&lt;/b&gt;" style="text;html=1;strokeColor=none;fillColor=none;align=left;verticalAlign=top;whiteSpace=wrap;rounded=0;fontSize=24;" parent="1" vertex="1">
                    <mxGeometry x="1240" y="710" width="120" height="200" as="geometry"/>
                </mxCell>
                <mxCell id="H-HpMa1tES0XYP5US8zA-66" value="Tuesday, June 5, 2023" style="text;html=1;strokeColor=none;fillColor=none;align=center;verticalAlign=middle;whiteSpace=wrap;rounded=0;fontSize=26;fontStyle=1" parent="1" vertex="1">
                    <mxGeometry x="1240" y="340" width="440" height="30" as="geometry"/>
                </mxCell>
                <mxCell id="H-HpMa1tES0XYP5US8zA-55" value="Sun&lt;br&gt;&lt;br&gt;&lt;br&gt;" style="rounded=0;whiteSpace=wrap;html=1;fontSize=24;align=center;strokeColor=#36393d;fontColor=#FAFAFA;fillColor=#00006B;" parent="1" vertex="1">
                    <mxGeometry x="1220" y="160" width="80" height="120" as="geometry"/>
                </mxCell>
                <mxCell id="H-HpMa1tES0XYP5US8zA-56" value="Mon&lt;br&gt;&lt;br&gt;&lt;br&gt;" style="rounded=0;whiteSpace=wrap;html=1;fontSize=24;align=center;fillColor=#1ba1e2;strokeColor=#006EAF;fontColor=#ffffff;" parent="1" vertex="1">
                    <mxGeometry x="1320" y="160" width="80" height="120" as="geometry"/>
                </mxCell>
                <mxCell id="H-HpMa1tES0XYP5US8zA-58" value="Wed&lt;br&gt;&lt;br&gt;&lt;br&gt;" style="rounded=0;whiteSpace=wrap;html=1;fontSize=24;align=center;strokeColor=#C73500;fontColor=#ffffff;fillColor=#fa6800;" parent="1" vertex="1">
                    <mxGeometry x="1520" y="160" width="80" height="120" as="geometry"/>
                </mxCell>
                <mxCell id="H-HpMa1tES0XYP5US8zA-59" value="Thu&lt;br&gt;&lt;br&gt;&lt;br&gt;" style="rounded=0;whiteSpace=wrap;html=1;fontSize=24;align=center;fillColor=#e51400;strokeColor=#B20000;fontColor=#ffffff;" parent="1" vertex="1">
                    <mxGeometry x="1620" y="160" width="80" height="120" as="geometry"/>
                </mxCell>
                <mxCell id="H-HpMa1tES0XYP5US8zA-60" value="" style="shape=image;verticalLabelPosition=bottom;labelBackgroundColor=#ffffff;verticalAlign=top;aspect=fixed;imageAspect=0;image=data:image/png,iVBORw0KGgoAAAANSUhEUgAAAFIAAABSCAYAAADHLIObAAADBElEQVR4Ae3da07DMBAE4Ny8l+r9QC61CGkc72t2p9SRUJrEXu98GPhRBNu2bV/rw22wteMBeb/fv9YhF2he3e6h2C76zYUpg9x7PTF/dmSbvn8oK/eZo45OL5ALc74xjohtxinkwhxjniFeQi7MV8wR4hRyYf5iXiGKIBem7Afw8Hvk7+fi59XsM3Ic/1+upbnFkA1GWvTTEFteFeQnYWo3jRryEzC1iKYd2Sa1w7LYcyr1yZrLtCO7hHXRPp/t7MnjgmwQnsWZIL053JD/AdOL2AxCIN8ZMwIxFPIdMaMQwyHfCTMSEQL5DpjRiDBIZkwEIhSSEROFCIdkwkQipkAyYKIR0yArMTMQUyErMLMQ0yEzMTMRSyAzMLMRyyCRmBWIpZAIzCrEcshIzEpECsgIzGpEGkgPJgMiFaQFkwWRDlKDyYRICSnBZEOkhbzCZESkhjzDZEWkh9xj3m63x1ueDZPxCHs7FhmuI7Yz60EP2b+cO+bakYat1BE73vHaUBI2hXZHjtBG92FCwsKUkDOs2XNh9tBhdJBSJOm4UK2LYlSQWhzt+AsH9yMaSCuKdZ5b7lCAAtKL4Z1/MDFdlkNGIUTVMSlG/qKppYHo8NH1NJnKdiQqNKruDLUEEh0WXf8MNR0yK2TWOh01FTI7XOZ6aZCZofouaeesdVMgs8LsAfevM9aHQ2aE2KONXqP7gEKimx+hje4j+4FBIpseQUnuo/qCQKKalUBJxiD6C4dENCnB0Y6J7jMUMro5LY52fGS/YZCRTWlBPOOj+g6BjGrGA+KZG9G/GzKiCQ9C1FxvDhekd/EohKg6njxmSM+iUcERday5TJDWxRDBETUt+dSQlkUQYdE1tTlVkNri6LDo+pq8YkhNUXTAzPrS3CJIabHMgJlrSfJPISVFMkNVrTVzuIScTa4KVbXulccQ8mpSVRCGdUcup5CjwQxBGHo483mBPBvE0DxbD0enP5DHh2zNs/Wz9/oD2S7aw3XIBTrmC+TzRv97iOus+z8//T+xrLNX4BsVIYB1+S7+PQAAAABJRU5ErkJggg==;" parent="1" vertex="1">
                    <mxGeometry x="1234" y="218" width="52" height="52" as="geometry"/>
                </mxCell>
                <mxCell id="H-HpMa1tES0XYP5US8zA-61" value="" style="shape=image;verticalLabelPosition=bottom;labelBackgroundColor=#ffffff;verticalAlign=top;aspect=fixed;imageAspect=0;image=data:image/png,iVBORw0KGgoAAAANSUhEUgAAAFIAAABSCAYAAADHLIObAAADBElEQVR4Ae3da07DMBAE4Ny8l+r9QC61CGkc72t2p9SRUJrEXu98GPhRBNu2bV/rw22wteMBeb/fv9YhF2he3e6h2C76zYUpg9x7PTF/dmSbvn8oK/eZo45OL5ALc74xjohtxinkwhxjniFeQi7MV8wR4hRyYf5iXiGKIBem7Afw8Hvk7+fi59XsM3Ic/1+upbnFkA1GWvTTEFteFeQnYWo3jRryEzC1iKYd2Sa1w7LYcyr1yZrLtCO7hHXRPp/t7MnjgmwQnsWZIL053JD/AdOL2AxCIN8ZMwIxFPIdMaMQwyHfCTMSEQL5DpjRiDBIZkwEIhSSEROFCIdkwkQipkAyYKIR0yArMTMQUyErMLMQ0yEzMTMRSyAzMLMRyyCRmBWIpZAIzCrEcshIzEpECsgIzGpEGkgPJgMiFaQFkwWRDlKDyYRICSnBZEOkhbzCZESkhjzDZEWkh9xj3m63x1ueDZPxCHs7FhmuI7Yz60EP2b+cO+bakYat1BE73vHaUBI2hXZHjtBG92FCwsKUkDOs2XNh9tBhdJBSJOm4UK2LYlSQWhzt+AsH9yMaSCuKdZ5b7lCAAtKL4Z1/MDFdlkNGIUTVMSlG/qKppYHo8NH1NJnKdiQqNKruDLUEEh0WXf8MNR0yK2TWOh01FTI7XOZ6aZCZofouaeesdVMgs8LsAfevM9aHQ2aE2KONXqP7gEKimx+hje4j+4FBIpseQUnuo/qCQKKalUBJxiD6C4dENCnB0Y6J7jMUMro5LY52fGS/YZCRTWlBPOOj+g6BjGrGA+KZG9G/GzKiCQ9C1FxvDhekd/EohKg6njxmSM+iUcERday5TJDWxRDBETUt+dSQlkUQYdE1tTlVkNri6LDo+pq8YkhNUXTAzPrS3CJIabHMgJlrSfJPISVFMkNVrTVzuIScTa4KVbXulccQ8mpSVRCGdUcup5CjwQxBGHo483mBPBvE0DxbD0enP5DHh2zNs/Wz9/oD2S7aw3XIBTrmC+TzRv97iOus+z8//T+xrLNX4BsVIYB1+S7+PQAAAABJRU5ErkJggg==;" parent="1" vertex="1">
                    <mxGeometry x="1334" y="218" width="52" height="52" as="geometry"/>
                </mxCell>
                <mxCell id="H-HpMa1tES0XYP5US8zA-63" value="" style="shape=image;verticalLabelPosition=bottom;labelBackgroundColor=#ffffff;verticalAlign=top;aspect=fixed;imageAspect=0;image=data:image/png,iVBORw0KGgoAAAANSUhEUgAAAFIAAABSCAYAAADHLIObAAADBElEQVR4Ae3da07DMBAE4Ny8l+r9QC61CGkc72t2p9SRUJrEXu98GPhRBNu2bV/rw22wteMBeb/fv9YhF2he3e6h2C76zYUpg9x7PTF/dmSbvn8oK/eZo45OL5ALc74xjohtxinkwhxjniFeQi7MV8wR4hRyYf5iXiGKIBem7Afw8Hvk7+fi59XsM3Ic/1+upbnFkA1GWvTTEFteFeQnYWo3jRryEzC1iKYd2Sa1w7LYcyr1yZrLtCO7hHXRPp/t7MnjgmwQnsWZIL053JD/AdOL2AxCIN8ZMwIxFPIdMaMQwyHfCTMSEQL5DpjRiDBIZkwEIhSSEROFCIdkwkQipkAyYKIR0yArMTMQUyErMLMQ0yEzMTMRSyAzMLMRyyCRmBWIpZAIzCrEcshIzEpECsgIzGpEGkgPJgMiFaQFkwWRDlKDyYRICSnBZEOkhbzCZESkhjzDZEWkh9xj3m63x1ueDZPxCHs7FhmuI7Yz60EP2b+cO+bakYat1BE73vHaUBI2hXZHjtBG92FCwsKUkDOs2XNh9tBhdJBSJOm4UK2LYlSQWhzt+AsH9yMaSCuKdZ5b7lCAAtKL4Z1/MDFdlkNGIUTVMSlG/qKppYHo8NH1NJnKdiQqNKruDLUEEh0WXf8MNR0yK2TWOh01FTI7XOZ6aZCZofouaeesdVMgs8LsAfevM9aHQ2aE2KONXqP7gEKimx+hje4j+4FBIpseQUnuo/qCQKKalUBJxiD6C4dENCnB0Y6J7jMUMro5LY52fGS/YZCRTWlBPOOj+g6BjGrGA+KZG9G/GzKiCQ9C1FxvDhekd/EohKg6njxmSM+iUcERday5TJDWxRDBETUt+dSQlkUQYdE1tTlVkNri6LDo+pq8YkhNUXTAzPrS3CJIabHMgJlrSfJPISVFMkNVrTVzuIScTa4KVbXulccQ8mpSVRCGdUcup5CjwQxBGHo483mBPBvE0DxbD0enP5DHh2zNs/Wz9/oD2S7aw3XIBTrmC+TzRv97iOus+z8//T+xrLNX4BsVIYB1+S7+PQAAAABJRU5ErkJggg==;" parent="1" vertex="1">
                    <mxGeometry x="1534" y="218" width="52" height="52" as="geometry"/>
                </mxCell>
                <mxCell id="H-HpMa1tES0XYP5US8zA-64" value="" style="shape=image;verticalLabelPosition=bottom;labelBackgroundColor=#ffffff;verticalAlign=top;aspect=fixed;imageAspect=0;image=data:image/png,iVBORw0KGgoAAAANSUhEUgAAAFIAAABSCAYAAADHLIObAAADBElEQVR4Ae3da07DMBAE4Ny8l+r9QC61CGkc72t2p9SRUJrEXu98GPhRBNu2bV/rw22wteMBeb/fv9YhF2he3e6h2C76zYUpg9x7PTF/dmSbvn8oK/eZo45OL5ALc74xjohtxinkwhxjniFeQi7MV8wR4hRyYf5iXiGKIBem7Afw8Hvk7+fi59XsM3Ic/1+upbnFkA1GWvTTEFteFeQnYWo3jRryEzC1iKYd2Sa1w7LYcyr1yZrLtCO7hHXRPp/t7MnjgmwQnsWZIL053JD/AdOL2AxCIN8ZMwIxFPIdMaMQwyHfCTMSEQL5DpjRiDBIZkwEIhSSEROFCIdkwkQipkAyYKIR0yArMTMQUyErMLMQ0yEzMTMRSyAzMLMRyyCRmBWIpZAIzCrEcshIzEpECsgIzGpEGkgPJgMiFaQFkwWRDlKDyYRICSnBZEOkhbzCZESkhjzDZEWkh9xj3m63x1ueDZPxCHs7FhmuI7Yz60EP2b+cO+bakYat1BE73vHaUBI2hXZHjtBG92FCwsKUkDOs2XNh9tBhdJBSJOm4UK2LYlSQWhzt+AsH9yMaSCuKdZ5b7lCAAtKL4Z1/MDFdlkNGIUTVMSlG/qKppYHo8NH1NJnKdiQqNKruDLUEEh0WXf8MNR0yK2TWOh01FTI7XOZ6aZCZofouaeesdVMgs8LsAfevM9aHQ2aE2KONXqP7gEKimx+hje4j+4FBIpseQUnuo/qCQKKalUBJxiD6C4dENCnB0Y6J7jMUMro5LY52fGS/YZCRTWlBPOOj+g6BjGrGA+KZG9G/GzKiCQ9C1FxvDhekd/EohKg6njxmSM+iUcERday5TJDWxRDBETUt+dSQlkUQYdE1tTlVkNri6LDo+pq8YkhNUXTAzPrS3CJIabHMgJlrSfJPISVFMkNVrTVzuIScTa4KVbXulccQ8mpSVRCGdUcup5CjwQxBGHo483mBPBvE0DxbD0enP5DHh2zNs/Wz9/oD2S7aw3XIBTrmC+TzRv97iOus+z8//T+xrLNX4BsVIYB1+S7+PQAAAABJRU5ErkJggg==;" parent="1" vertex="1">
                    <mxGeometry x="1634" y="218" width="52" height="52" as="geometry"/>
                </mxCell>
                <mxCell id="H-HpMa1tES0XYP5US8zA-69" value="Tue&#10;&#10;" style="group;fillColor=#E5F7BC;strokeColor=#2D7600;fontColor=#000000;fontSize=24;verticalAlign=middle;" parent="1" vertex="1" connectable="0">
                    <mxGeometry x="1420" y="200" width="80" height="120" as="geometry"/>
                </mxCell>
                <mxCell id="H-HpMa1tES0XYP5US8zA-62" value="" style="shape=image;verticalLabelPosition=bottom;labelBackgroundColor=#ffffff;verticalAlign=top;aspect=fixed;imageAspect=0;image=data:image/png,iVBORw0KGgoAAAANSUhEUgAAAFIAAABSCAYAAADHLIObAAADBElEQVR4Ae3da07DMBAE4Ny8l+r9QC61CGkc72t2p9SRUJrEXu98GPhRBNu2bV/rw22wteMBeb/fv9YhF2he3e6h2C76zYUpg9x7PTF/dmSbvn8oK/eZo45OL5ALc74xjohtxinkwhxjniFeQi7MV8wR4hRyYf5iXiGKIBem7Afw8Hvk7+fi59XsM3Ic/1+upbnFkA1GWvTTEFteFeQnYWo3jRryEzC1iKYd2Sa1w7LYcyr1yZrLtCO7hHXRPp/t7MnjgmwQnsWZIL053JD/AdOL2AxCIN8ZMwIxFPIdMaMQwyHfCTMSEQL5DpjRiDBIZkwEIhSSEROFCIdkwkQipkAyYKIR0yArMTMQUyErMLMQ0yEzMTMRSyAzMLMRyyCRmBWIpZAIzCrEcshIzEpECsgIzGpEGkgPJgMiFaQFkwWRDlKDyYRICSnBZEOkhbzCZESkhjzDZEWkh9xj3m63x1ueDZPxCHs7FhmuI7Yz60EP2b+cO+bakYat1BE73vHaUBI2hXZHjtBG92FCwsKUkDOs2XNh9tBhdJBSJOm4UK2LYlSQWhzt+AsH9yMaSCuKdZ5b7lCAAtKL4Z1/MDFdlkNGIUTVMSlG/qKppYHo8NH1NJnKdiQqNKruDLUEEh0WXf8MNR0yK2TWOh01FTI7XOZ6aZCZofouaeesdVMgs8LsAfevM9aHQ2aE2KONXqP7gEKimx+hje4j+4FBIpseQUnuo/qCQKKalUBJxiD6C4dENCnB0Y6J7jMUMro5LY52fGS/YZCRTWlBPOOj+g6BjGrGA+KZG9G/GzKiCQ9C1FxvDhekd/EohKg6njxmSM+iUcERday5TJDWxRDBETUt+dSQlkUQYdE1tTlVkNri6LDo+pq8YkhNUXTAzPrS3CJIabHMgJlrSfJPISVFMkNVrTVzuIScTa4KVbXulccQ8mpSVRCGdUcup5CjwQxBGHo483mBPBvE0DxbD0enP5DHh2zNs/Wz9/oD2S7aw3XIBTrmC+TzRv97iOus+z8//T+xrLNX4BsVIYB1+S7+PQAAAABJRU5ErkJggg==;" parent="H-HpMa1tES0XYP5US8zA-69" vertex="1">
                    <mxGeometry x="14" y="57" width="52" height="52" as="geometry"/>
                </mxCell>
                <mxCell id="H-HpMa1tES0XYP5US8zA-73" value="" style="endArrow=classic;html=1;fontSize=26;" parent="1" target="H-HpMa1tES0XYP5US8zA-22" edge="1">
                    <mxGeometry width="50" height="50" relative="1" as="geometry">
                        <mxPoint x="840" y="449.9" as="sourcePoint"/>
                        <mxPoint x="670" y="129.9" as="targetPoint"/>
                    </mxGeometry>
                </mxCell>
                <mxCell id="H-HpMa1tES0XYP5US8zA-74" value="Shadow or glow on hover" style="edgeLabel;html=1;align=center;verticalAlign=middle;resizable=0;points=[];fontSize=26;labelBorderColor=#000000;" parent="H-HpMa1tES0XYP5US8zA-73" vertex="1" connectable="0">
                    <mxGeometry x="-0.8326" y="2" relative="1" as="geometry">
                        <mxPoint x="115" y="-15" as="offset"/>
                    </mxGeometry>
                </mxCell>
                <mxCell id="H-HpMa1tES0XYP5US8zA-75" value="" style="endArrow=classic;html=1;fontSize=26;" parent="1" edge="1">
                    <mxGeometry width="50" height="50" relative="1" as="geometry">
                        <mxPoint x="1321.1100000000001" y="-90" as="sourcePoint"/>
                        <mxPoint x="1436.190285714286" y="200" as="targetPoint"/>
                    </mxGeometry>
                </mxCell>
                <mxCell id="H-HpMa1tES0XYP5US8zA-76" value="Move down on click" style="edgeLabel;html=1;align=center;verticalAlign=middle;resizable=0;points=[];fontSize=26;labelBorderColor=#000000;" parent="H-HpMa1tES0XYP5US8zA-75" vertex="1" connectable="0">
                    <mxGeometry x="-0.8326" y="2" relative="1" as="geometry">
                        <mxPoint x="6.579999999999998" y="-18.269999999999996" as="offset"/>
                    </mxGeometry>
                </mxCell>
                <mxCell id="H-HpMa1tES0XYP5US8zA-78" value="" style="shape=link;html=1;fontSize=26;width=7.647058823529413;" parent="1" edge="1">
                    <mxGeometry width="100" relative="1" as="geometry">
                        <mxPoint x="1130" as="sourcePoint"/>
                        <mxPoint x="1130" y="1070" as="targetPoint"/>
                    </mxGeometry>
                </mxCell>
                <mxCell id="H-HpMa1tES0XYP5US8zA-79" value="" style="shape=flexArrow;endArrow=classic;html=1;fontSize=26;width=58.285714285714285;endSize=23.09714285714286;fillColor=#0050ef;strokeColor=#001DBC;endWidth=61.06122448979592;" parent="1" edge="1">
                    <mxGeometry width="50" height="50" relative="1" as="geometry">
                        <mxPoint x="1030" y="400" as="sourcePoint"/>
                        <mxPoint x="1210" y="219.58" as="targetPoint"/>
                    </mxGeometry>
                </mxCell>
                <mxCell id="H-HpMa1tES0XYP5US8zA-80" value="click" style="edgeLabel;html=1;align=center;verticalAlign=middle;resizable=0;points=[];fontSize=34;fontColor=#FFFFFF;labelBackgroundColor=none;" parent="H-HpMa1tES0XYP5US8zA-79" vertex="1" connectable="0">
                    <mxGeometry x="0.3667" y="-4" relative="1" as="geometry">
                        <mxPoint x="-43" y="34" as="offset"/>
                    </mxGeometry>
                </mxCell>
                <mxCell id="H-HpMa1tES0XYP5US8zA-81" value="5 AM&#10;7 AM&#10;9 AM&#10;11 AM&#10;1 PM&#10;3 PM&#10;5 PM&#10;7 PM&#10;9 PM&#10;11 PM" style="fontSize=24;rotation=90;align=right;fillColor=none;strokeColor=none;" parent="1" vertex="1">
                    <mxGeometry x="1475" y="450" width="90" height="390" as="geometry"/>
                </mxCell>
                <mxCell id="H-HpMa1tES0XYP5US8zA-82" value="70Â  70 70 70 70 70 70 70 70 70&#10;70Â  70 70 70 70 70 70 70 70 70&#10;3Â  Â  3Â  Â 3Â  Â  3Â  Â 3Â  Â 3Â  Â 3Â  Â 3Â  Â 3Â  Â 3&#10;15Â  15 15 15 15 15 15Â  15 15 15&#10;10Â  10 10 10 10 10 10Â  10 10 10&#10;6Â  Â  6Â  Â 6Â  Â  6Â  Â 6Â  Â 6Â  Â 6Â  Â 6Â  Â 6Â  Â 6" style="align=left;verticalAlign=top;fontSize=21;strokeColor=none;" parent="1" vertex="1">
                    <mxGeometry x="1370" y="710" width="310" height="180" as="geometry"/>
                </mxCell>
                <mxCell id="H-HpMa1tES0XYP5US8zA-84" value="Wind:&lt;br&gt;Precipitation:&lt;br&gt;Humidity:&lt;br&gt;UV Index:" style="text;html=1;align=left;verticalAlign=middle;whiteSpace=wrap;rounded=0;fontSize=21;" parent="1" vertex="1">
                    <mxGeometry x="1230" y="380" width="446" height="100" as="geometry"/>
                </mxCell>
                <mxCell id="H-HpMa1tES0XYP5US8zA-85" value="BY HOUR" style="text;html=1;strokeColor=none;fillColor=none;align=center;verticalAlign=middle;whiteSpace=wrap;rounded=0;fontSize=21;fontStyle=1" parent="1" vertex="1">
                    <mxGeometry x="1300" y="580" width="320" height="20" as="geometry"/>
                </mxCell>
                <mxCell id="H-HpMa1tES0XYP5US8zA-86" value="&lt;b style=&quot;color: rgb(0, 0, 0); font-size: 20px;&quot;&gt;Sunrise:&lt;/b&gt;&lt;span style=&quot;color: rgb(0, 0, 0); font-size: 20px;&quot;&gt;&amp;nbsp;6:13 AM&amp;nbsp; &amp;nbsp; &amp;nbsp; &amp;nbsp;&lt;/span&gt;&lt;b style=&quot;color: rgb(0, 0, 0); font-size: 20px;&quot;&gt;Sunset:&lt;/b&gt;&lt;span style=&quot;color: rgb(0, 0, 0); font-size: 20px;&quot;&gt;&amp;nbsp;5:16 PM&lt;/span&gt;&lt;br style=&quot;color: rgb(0, 0, 0); font-size: 20px;&quot;&gt;&lt;b style=&quot;color: rgb(0, 0, 0); font-size: 20px;&quot;&gt;Moonrise:&lt;/b&gt;&lt;span style=&quot;color: rgb(0, 0, 0); font-size: 20px;&quot;&gt;&amp;nbsp;4:30 PM&amp;nbsp; &amp;nbsp;&amp;nbsp;&lt;/span&gt;&lt;b style=&quot;color: rgb(0, 0, 0); font-size: 20px;&quot;&gt;Moonset:&amp;nbsp;&lt;/b&gt;&lt;span style=&quot;color: rgb(0, 0, 0); font-size: 20px;&quot;&gt;7:02 AM tomorrow&lt;/span&gt;" style="text;html=1;strokeColor=none;fillColor=none;align=left;verticalAlign=middle;whiteSpace=wrap;rounded=0;fontSize=20;fontColor=#FFFFFF;" parent="1" vertex="1">
                    <mxGeometry x="1230" y="480" width="460" height="70" as="geometry"/>
                </mxCell>
                <mxCell id="H-HpMa1tES0XYP5US8zA-39" value="&lt;b&gt;Highest:&lt;/b&gt;&amp;nbsp;80Â°F (??Â°C) Monday 4:00 PM&lt;br&gt;&lt;br&gt;&lt;b&gt;Lowest:&lt;/b&gt;&amp;nbsp;64Â°F (??Â°C) Wednesday 2:00 AM&lt;br&gt;&lt;br&gt;&lt;b&gt;Avg. Wind Speed:&lt;/b&gt;&amp;nbsp;3mph N/NE&lt;br&gt;&lt;b&gt;&lt;br&gt;Avg. Humidity:&lt;/b&gt;&amp;nbsp;20%&lt;br&gt;&lt;br&gt;&lt;b&gt;Avg. &lt;u&gt;UV Index&lt;/u&gt;:&lt;/b&gt;&amp;nbsp;2" style="text;html=1;strokeColor=none;fillColor=none;align=left;verticalAlign=top;whiteSpace=wrap;rounded=0;fontSize=24;" parent="1" vertex="1">
                    <mxGeometry x="400" y="760.29" width="600" height="290" as="geometry"/>
                </mxCell>
                <mxCell id="H-HpMa1tES0XYP5US8zA-40" value="WEEKLY STATISTICS" style="text;html=1;strokeColor=none;fillColor=none;align=center;verticalAlign=middle;whiteSpace=wrap;rounded=0;fontSize=26;" parent="1" vertex="1">
                    <mxGeometry x="400" y="680.29" width="600" height="30" as="geometry"/>
                </mxCell>
                <mxCell id="H-HpMa1tES0XYP5US8zA-42" value="(Click on a day above to view daily statistics!)" style="text;html=1;strokeColor=none;fillColor=none;align=center;verticalAlign=middle;whiteSpace=wrap;rounded=0;fontSize=18;" parent="1" vertex="1">
                    <mxGeometry x="400" y="720.29" width="600" height="20" as="geometry"/>
                </mxCell>
                <mxCell id="9SW7LHWKbso7EhPT3S-v-2" value="" style="endArrow=none;dashed=1;html=1;dashPattern=1 3;strokeWidth=2;fontSize=18;" parent="1" edge="1">
                    <mxGeometry x="400" y="650" width="50" height="50" as="geometry">
                        <mxPoint x="340" y="650" as="sourcePoint"/>
                        <mxPoint x="1080" y="650" as="targetPoint"/>
                    </mxGeometry>
                </mxCell>
                <mxCell id="9SW7LHWKbso7EhPT3S-v-5" value="" style="endArrow=none;dashed=1;html=1;dashPattern=1 3;strokeWidth=2;fontSize=18;" parent="1" edge="1">
                    <mxGeometry x="400" y="300" width="50" height="50" as="geometry">
                        <mxPoint x="340" y="300.0000000000001" as="sourcePoint"/>
                        <mxPoint x="1060" y="300" as="targetPoint"/>
                    </mxGeometry>
                </mxCell>
                <mxCell id="9SW7LHWKbso7EhPT3S-v-6" value="5-DAY FORECAST" style="text;html=1;strokeColor=none;fillColor=none;align=center;verticalAlign=middle;whiteSpace=wrap;rounded=0;fontSize=30;fontColor=#000000;fontStyle=1" parent="1" vertex="1">
                    <mxGeometry x="340" y="330" width="720" height="40" as="geometry"/>
                </mxCell>
                <mxCell id="9SW7LHWKbso7EhPT3S-v-7" value="Wednesday, 6/21/2023" style="text;html=1;strokeColor=none;fillColor=none;align=center;verticalAlign=middle;whiteSpace=wrap;rounded=0;fontSize=24;fontColor=#000000;" parent="1" vertex="1">
                    <mxGeometry x="360" y="90" width="690" height="30" as="geometry"/>
                </mxCell>
                <mxCell id="7J5Byr9Dt8KmLTxiypCV-1" value="" style="shape=image;verticalLabelPosition=bottom;labelBackgroundColor=#ffffff;verticalAlign=top;aspect=fixed;imageAspect=0;image=data:image/png,iVBORw0KGgoAAAANSUhEUgAAAFIAAABSCAYAAADHLIObAAADBElEQVR4Ae3da07DMBAE4Ny8l+r9QC61CGkc72t2p9SRUJrEXu98GPhRBNu2bV/rw22wteMBeb/fv9YhF2he3e6h2C76zYUpg9x7PTF/dmSbvn8oK/eZo45OL5ALc74xjohtxinkwhxjniFeQi7MV8wR4hRyYf5iXiGKIBem7Afw8Hvk7+fi59XsM3Ic/1+upbnFkA1GWvTTEFteFeQnYWo3jRryEzC1iKYd2Sa1w7LYcyr1yZrLtCO7hHXRPp/t7MnjgmwQnsWZIL053JD/AdOL2AxCIN8ZMwIxFPIdMaMQwyHfCTMSEQL5DpjRiDBIZkwEIhSSEROFCIdkwkQipkAyYKIR0yArMTMQUyErMLMQ0yEzMTMRSyAzMLMRyyCRmBWIpZAIzCrEcshIzEpECsgIzGpEGkgPJgMiFaQFkwWRDlKDyYRICSnBZEOkhbzCZESkhjzDZEWkh9xj3m63x1ueDZPxCHs7FhmuI7Yz60EP2b+cO+bakYat1BE73vHaUBI2hXZHjtBG92FCwsKUkDOs2XNh9tBhdJBSJOm4UK2LYlSQWhzt+AsH9yMaSCuKdZ5b7lCAAtKL4Z1/MDFdlkNGIUTVMSlG/qKppYHo8NH1NJnKdiQqNKruDLUEEh0WXf8MNR0yK2TWOh01FTI7XOZ6aZCZofouaeesdVMgs8LsAfevM9aHQ2aE2KONXqP7gEKimx+hje4j+4FBIpseQUnuo/qCQKKalUBJxiD6C4dENCnB0Y6J7jMUMro5LY52fGS/YZCRTWlBPOOj+g6BjGrGA+KZG9G/GzKiCQ9C1FxvDhekd/EohKg6njxmSM+iUcERday5TJDWxRDBETUt+dSQlkUQYdE1tTlVkNri6LDo+pq8YkhNUXTAzPrS3CJIabHMgJlrSfJPISVFMkNVrTVzuIScTa4KVbXulccQ8mpSVRCGdUcup5CjwQxBGHo483mBPBvE0DxbD0enP5DHh2zNs/Wz9/oD2S7aw3XIBTrmC+TzRv97iOus+z8//T+xrLNX4BsVIYB1+S7+PQAAAABJRU5ErkJggg==;" parent="1" vertex="1">
                    <mxGeometry x="580" y="138.19" width="133.63" height="133.63" as="geometry"/>
                </mxCell>
                <mxCell id="7J5Byr9Dt8KmLTxiypCV-2" value="&lt;i&gt;Feels Like: 76Â°F (??Â°C)&lt;/i&gt;&lt;br&gt;Wind speed: 20 MPH (?? KMPH)&lt;br style=&quot;font-size: 20px&quot;&gt;Humidity: 9%&lt;br style=&quot;font-size: 20px&quot;&gt;UV Index: 5 / 15" style="rounded=0;whiteSpace=wrap;html=1;fontSize=20;verticalAlign=middle;align=left;strokeColor=none;" parent="1" vertex="1">
                    <mxGeometry x="730" y="140" width="310" height="130" as="geometry"/>
                </mxCell>
                <mxCell id="7J5Byr9Dt8KmLTxiypCV-3" value="65Â°F (??Â°C)" style="rounded=0;whiteSpace=wrap;html=1;fontSize=52;align=center;verticalAlign=middle;" parent="1" vertex="1">
                    <mxGeometry x="360" y="140" width="200" height="130" as="geometry"/>
                </mxCell>
            </root>
        </mxGraphModel>
    </diagram>
</mxfile>